<svg width="96" height="96" viewBox="0 0 96 96" fill="none" xmlns="http://www.w3.org/2000/svg">
<path d="M84.8614 0H11.1386C4.98692 0 0 4.98692 0 11.1386V84.8614C0 91.0131 4.98692 96 11.1386 96H84.8614C91.0131 96 96 91.0131 96 84.8614V11.1386C96 4.98692 91.0131 0 84.8614 0Z" fill="url(#paint0_linear_5008_40311)"/>
<path fill-rule="evenodd" clip-rule="evenodd" d="M45.1276 63.4009H45.1402L45.1276 63.4135V63.455H67.8684V80.6077H42.3461L28 63.4675V63.4009V32.2067V32.1402L28.1002 32.0274L42.3461 15H67.8684V32.1527H45.1276V32.1942L45.1402 32.2067H45.1276V63.4009Z" fill="white"/>
<path d="M67.3927 40.4343H51.9189V55.9081H67.3927V40.4343Z" fill="white"/>
<defs>
<linearGradient id="paint0_linear_5008_40311" x1="9.5" y1="80" x2="66.5" y2="34.5" gradientUnits="userSpaceOnUse">
<stop stop-color="#EC3957"/>
<stop offset="1" stop-color="#F24F54"/>
</linearGradient>
</defs>
</svg>
